<svg height="181.497043" viewBox="0 0 22.401603 7.4606545" width="550.973165" xmlns="http://www.w3.org/2000/svg"><g transform="translate(-106.727788 -139.811338)"><path d="m128.65593 144.29063v-.0991h.067c.0342 0 .0702.007.0702.0476 0 .0487-.0367.0515-.078.0515zm0 .042h.0564l.085.13935h.0543l-.0914-.14111c.048-.006.0836-.0317.0836-.0896 0-.0628-.0378-.0917-.11359-.0917h-.12242v.32244h.048zm.0593.25823c.15275 0 .28187-.11888.28187-.28045 0-.16087-.12912-.2787-.28187-.2787-.15417 0-.28328.11783-.28328.2787 0 .16157.12911.28045.28328.28045m-.22719-.28045c0-.13194.0995-.23178.22719-.23178.12664 0 .22648.0998.22648.23178 0 .13476-.0998.23318-.22648.23318-.12771 0-.22719-.0984-.22719-.23318" fill="#683817"/><path d="m114.39559 144.59028h-.18732v-1.59138h1.30704v.18662h-1.11972v.48613h.69779v.18662h-.69779z" fill="#683817"/><path d="m116.13069 144.59042h-.18697v-1.59138h.18697z" fill="#683817"/><path d="m117.93653 144.59028h-1.35431v-1.59138h1.30669v.18662h-1.11937v.48613h.58914v.18662h-.58914v.54539h1.16699z" fill="#683817"/><path d="m119.17897 143.65673c.29704 0 .59831.1083.59831.46037 0 .34573-.36936.5073-.75953.5073-.4833 0-.70203-.24201-.79587-.34149l.13371-.13194c.0974.0871.25682.28681.66851.28681.35842 0 .56586-.13582.56586-.32068 0-.19967-.20109-.27375-.36019-.27375h-.33549c-.30727 0-.55527-.10195-.55527-.39864 0-.22049.19896-.47978.68827-.47978.36441 0 .58455.17428.66533.23354l-.11747.1464c-.1136-.0765-.26635-.19296-.5528-.19296-.35843 0-.49671.16792-.49671.2928 0 .21202.26881.21202.46002.21202z" fill="#683817"/><path d="m120.75564 144.59028h-.18768v-1.40476h-.58138v-.18662h1.34973v.18662h-.58067z" fill="#683817"/><path d="m122.18916 143.22613-.2988.63218h.58772zm.8382 1.36419h-.20814l-.25859-.54539h-.76411l-.25047.54539h-.20779l.75741-1.59138h.18698z" fill="#683817"/><path d="m124.48059 144.59042h-.18662v-1.59138h.18662z" fill="#683817"/><path d="m126.36213 144.59028h-.18627l-1.03187-1.29646h-.003v1.29646h-.18803v-1.59138h.18803l1.03011 1.31339h.005v-1.31339h.18627z" fill="#683817"/><path d="m128.23559 144.59028h-.18662l-1.03152-1.29646h-.004v1.29646h-.18733v-1.59138h.18733l1.03046 1.31339h.005v-1.31339h.18662z" fill="#683817"/><path d="m110.23708 142.13121v.75071c0 .5274.5274.5274.5274.5274h1.53882v-1.80551h-1.53882c-.5274 0-.5274.5274-.5274.5274" fill="#653d19"/><path d="m110.23708 145.11546v2.02424h1.38112s.6851 0 .6851-.68474v-1.86726h-1.53882c-.5274 0-.5274.52776-.5274.52776" fill="#653d19"/><path d="m111.61835 139.94364h-4.07317s-.6851 0-.6851.68545v5.82542s0 .68509.6851.68509h2.63525.0568v-2.02424s0-.52775.5274-.52775h1.53846v-.0561-1.06574-.0561h-1.53846s-.5274 0-.5274-.52775v-.75072s0-.5274.5274-.5274h1.53846v-.0568-.91792s0-.68545-.68474-.68545" fill="#e11f26"/><g fill="#683817"><path d="m114.67513 145.86208h-.0628v-.25047h-.34643v.25047h-.0639v-.53799h.0639v.22543h.34643v-.22543h.0628z"/><path d="m115.22239 145.81061c.12876 0 .22542-.0984.22542-.21766 0-.11924-.0967-.21731-.22542-.21731-.12947 0-.22613.0981-.22613.21731 0 .11924.0967.21766.22613.21766m0-.49812c.16475 0 .28892.12876.28892.28046 0 .15169-.12417.28045-.28892.28045-.16545 0-.28857-.12876-.28857-.28045 0-.1517.12312-.28046.28857-.28046"/><path d="m115.96245 145.86208h-.0624v-.47519h-.19615v-.0628h.45579v.0628h-.1972z"/><path d="m116.84193 145.86208h-.45755v-.53799h.44238v.0628h-.37924v.16439h.19897v.0628h-.19897v.18521h.39441z"/><path d="m117.48074 145.86208h-.40111v-.53799h.0632v.4752h.33796z"/><path d="m118.12861 145.86208h-.45791v-.53799h.44239v.0628h-.37818v.16439h.19861v.0628h-.19861v.18521h.3937z"/><path d="m118.61375 145.54606c.10054 0 .20179.037.20179.15557 0 .11748-.12418.17181-.25647.17181-.16298 0-.23742-.0818-.26882-.11571l.0448-.0445c.0328.03.0868.0974.22613.0974.1217 0 .19155-.0459.19155-.10901 0-.0674-.0681-.0924-.1217-.0924h-.11325c-.10371 0-.18838-.0346-.18838-.13512 0-.0748.0681-.16157.23319-.16157.12241 0 .1972.0589.22472.079l-.0395.049c-.0392-.0261-.0903-.0649-.18768-.0649-.12065 0-.16687.0564-.16687.0984 0 .072.091.072.15558.072z"/><path d="m119.67593 145.79929c.0783 0 .13088-.0208.13088-.0857 0-.0625-.0504-.0956-.13088-.0956h-.23636v.18133zm0-.24412c.0688 0 .10583-.0356.10583-.0875 0-.0441-.0342-.0804-.10583-.0804h-.23636v.16792zm0-.23142c.0843 0 .16863.0427.16863.14746 0 .0603-.0303.0981-.0519.10901.0339.0194.0773.0667.0773.13052 0 .12453-.10266.15134-.19403.15134h-.29951v-.53833z"/><path d="m120.59291 145.65278c0 .13829-.0727.22084-.23777.22084-.17004 0-.23742-.0825-.23742-.22084v-.32879h.0631v.32879c0 .11395.0593.15804.17427.15804.11395 0 .17427-.0441.17427-.15804v-.32879h.0635z"/><path d="m121.13308 145.54606c.10019 0 .20285.037.20285.15557 0 .11748-.12489.17181-.25718.17181-.16298 0-.23706-.0818-.26881-.11571l.0448-.0445c.0332.03.0871.0974.22683.0974.12101 0 .19121-.0459.19121-.10901 0-.0674-.0684-.0924-.12171-.0924h-.11359c-.10407 0-.18768-.0346-.18768-.13512 0-.0748.067-.16157.23248-.16157.12277 0 .1972.0589.22472.079l-.0395.049c-.0384-.0261-.09-.0649-.18697-.0649-.12101 0-.16793.0564-.16793.0984 0 .072.0903.072.15593.072z"/><path d="m121.62662 145.86184h-.0632v-.53799h.0632z"/><path d="m122.3992 145.86208h-.0631l-.34889-.43886h-.00071v.43886h-.0632v-.53799h.0632l.34784.44345h.002v-.44345h.0631z"/><path d="m123.14296 145.86208h-.45755v-.53799h.44168v.0628h-.37924v.16439h.19932v.0628h-.19932v.18521h.39511z"/><path d="m123.62775 145.54606c.10089 0 .20214.037.20214.15557 0 .11748-.12418.17181-.25611.17181-.1644 0-.23813-.0818-.26917-.11571l.0448-.0445c.0328.03.0871.0974.22613.0974.121 0 .19156-.0459.19156-.10901 0-.0674-.0681-.0924-.12171-.0924h-.11324c-.10407 0-.18803-.0346-.18803-.13512 0-.0748.0677-.16157.23212-.16157.12348 0 .19791.0589.22437.079l-.0385.049c-.0395-.0261-.091-.0649-.18697-.0649-.12206 0-.16828.0564-.16828.0984 0 .072.0914.072.15558.072z"/><path d="m124.30364 145.54606c.10054 0 .20214.037.20214.15557 0 .11748-.12418.17181-.25576.17181-.16369 0-.23813-.0818-.26988-.11571l.0452-.0445c.0332.03.0875.0974.22613.0974.121 0 .1912-.0459.1912-.10901 0-.0674-.0677-.0924-.121-.0924h-.11324c-.10442 0-.18874-.0346-.18874-.13512 0-.0748.0677-.16157.23284-.16157.12276 0 .19826.0589.22577.079l-.0399.049c-.0395-.0261-.0914-.0649-.18768-.0649-.12135 0-.16721.0564-.16721.0984 0 .072.091.072.15557.072z"/><path d="m125.58764 145.76655c-.03.0282-.0998.10724-.25823.10724-.1457 0-.29845-.0953-.29845-.28116 0-.18591.15275-.2801.28927-.2801.14888 0 .23143.0797.26.10689l-.0452.0434c-.0293-.0247-.10407-.0871-.21308-.0871-.13829 0-.22754.10513-.22754.21626 0 .10971.0893.21836.23847.21836.12489 0 .18662-.0674.21238-.0917z"/><path d="m126.23587 145.86208h-.40217v-.53799h.0635v.4752h.33867z"/><path d="m126.62481 145.40058-.10125.21378h.19862zm.28363.46143h-.0705l-.0871-.18485h-.25894l-.0854.18485h-.0688l.25576-.53798h.0628z"/><path d="m127.35474 145.54606c.0995 0 .20144.037.20144.15557 0 .11748-.12418.17181-.25647.17181-.16299 0-.23778-.0818-.26882-.11571l.0452-.0445c.0328.03.0864.0974.22542.0974.12136 0 .19191-.0459.19191-.10901 0-.0674-.0681-.0924-.12206-.0924h-.11324c-.10372 0-.18768-.0346-.18768-.13512 0-.0748.067-.16157.23213-.16157.12312 0 .19791.0589.22578.079l-.0402.049c-.0384-.0261-.0907-.0649-.18662-.0649-.12171 0-.16827.0564-.16827.0984 0 .072.0914.072.15557.072z"/><path d="m128.03066 145.54606c.0998 0 .20249.037.20249.15557 0 .11748-.12488.17181-.25682.17181-.16298 0-.23742-.0818-.26952-.11571l.0455-.0445c.0328.03.0868.0974.22578.0974.121 0 .19191-.0459.19191-.10901 0-.0674-.0684-.0924-.12171-.0924h-.1136c-.10406 0-.18803-.0346-.18803-.13512 0-.0748.067-.16157.23248-.16157.12312 0 .19756.0589.22472.079l-.0395.049c-.0388-.0261-.09-.0649-.18626-.0649-.12171 0-.16828.0564-.16828.0984 0 .072.0914.072.15558.072z"/></g></g></svg>